<?xml version="1.0" encoding="UTF-8"?>
<svg width="60px" height="60px" viewBox="0 0 60 60" version="1.1" xmlns="http://www.w3.org/2000/svg" xmlns:xlink="http://www.w3.org/1999/xlink">
    <!-- Generator: Sketch 51 (57462) - http://www.bohemiancoding.com/sketch -->
    <title>Growing-as-a-Leader</title>
    <desc>Created with Sketch.</desc>
    <defs></defs>
    <g id="Page-1" stroke="none" stroke-width="1" fill="none" fill-rule="evenodd">
        <g id="Artboard" fill="#3F3F3F" fill-rule="nonzero">
            <path d="M51.2133333,8.78666667 C45.5466667,3.12 38.0133333,0 30,0 C21.9866667,0 14.4533333,3.12 8.78666667,8.78666667 C3.12,14.4533333 0,21.9866667 0,30 C0,38.0133333 3.12,45.5466667 8.78666667,51.2133333 C14.4533333,56.88 21.9866667,60 30,60 C33.96,60 37.82,59.2333333 41.48,57.7133333 C45.14,56.2 48.4133333,54.0133333 51.2133333,51.2133333 C51.5066667,50.92 51.5066667,50.4466667 51.2133333,50.1533333 C50.92,49.86 50.4466667,49.86 50.1533333,50.1533333 C44.7733333,55.5333333 37.6133333,58.5 30,58.5 C25.4133333,58.5 20.8533333,57.38 16.8066667,55.26 L16.4,55.0466667 L19,50.54 C19.06,50.4333333 19.0866667,50.32 19.0933333,50.2 C19.1,49.9266667 18.96,49.6733333 18.7266667,49.5333333 L18.7,49.52 C15.4733333,47.6533333 12.7333333,44.9733333 10.7733333,41.7733333 C8.82,38.58 7.68,34.9266667 7.47333333,31.2066667 L7.44666667,30.74 L12.6333333,30.74 C13.0466667,30.74 13.38,30.4066667 13.38,29.9933333 C13.38,29.58 13.0466667,29.2466667 12.6333333,29.2466667 L7.44666667,29.2466667 L7.47333333,28.7866667 C7.56,27.22 7.80666667,25.66 8.20666667,24.16 C8.31333333,23.76 8.07333333,23.3466667 7.68,23.24 C7.28,23.1333333 6.86666667,23.3733333 6.76,23.7666667 C6.21333333,25.7933333 5.94,27.8933333 5.94,29.9933333 C5.94,34 6.96,37.9866667 8.89333333,41.52 C10.82,45.0466667 13.6133333,48.0533333 16.9733333,50.22 L17.3266667,50.4466667 L15.1066667,54.2933333 L14.72,54.0466667 C10.7533333,51.5133333 7.43333333,48.0133333 5.13333333,43.9133333 C2.75333333,39.68 1.5,34.8733333 1.5,30 C1.5,25.4133333 2.62,20.8533333 4.74,16.8133333 L4.95333333,16.4066667 L9.44,19 C9.55333333,19.0666667 9.68,19.1 9.81333333,19.1 C10.08,19.1 10.3266667,18.96 10.46,18.7266667 L10.4733333,18.7 C11.4533333,17 12.66,15.4333333 14.0466667,14.0466667 C14.34,13.7533333 14.34,13.28 14.0466667,12.9866667 C13.7533333,12.6933333 13.28,12.6933333 12.9866667,12.9866667 C11.7866667,14.1866667 10.7066667,15.5266667 9.77333333,16.9733333 L9.54666667,17.3266667 L5.7,15.1066667 L5.94666667,14.72 C8.48,10.7533333 11.98,7.43333333 16.08,5.13333333 C20.32,2.75333333 25.1266667,1.5 30,1.5 C34.5866667,1.5 39.1466667,2.62 43.1866667,4.74 L43.5933333,4.95333333 L41,9.44 C40.9,9.61333333 40.8733333,9.81333333 40.9266667,10.0066667 C40.98,10.2 41.1,10.36 41.2733333,10.46 C41.3866667,10.5266667 41.5133333,10.56 41.6466667,10.56 C41.9133333,10.56 42.16,10.4133333 42.3,10.1866667 L44.8933333,5.7 L45.28,5.94666667 C48.78,8.18 51.8133333,11.2133333 54.0466667,14.7133333 L54.2933333,15.1 L50.4466667,17.32 L50.22,16.9666667 C49.2866667,15.52 48.2066667,14.18 47.0066667,12.98 C46.7133333,12.6866667 46.24,12.6866667 45.9466667,12.98 C45.6533333,13.2733333 45.6533333,13.7466667 45.9466667,14.04 C48.74,16.8333333 50.76,20.3333333 51.7866667,24.1533333 C51.8733333,24.48 52.1733333,24.7066667 52.5066667,24.7066667 C52.5733333,24.7066667 52.64,24.7 52.7,24.68 C52.8933333,24.6266667 53.0533333,24.5066667 53.1533333,24.3333333 C53.2533333,24.16 53.28,23.96 53.2266667,23.7666667 C52.7866667,22.1266667 52.1666667,20.52 51.38,18.9933333 L51.1866667,18.62 L55.04,16.3933333 L55.2533333,16.8 C57.3733333,20.8466667 58.4933333,25.4066667 58.4933333,29.9933333 C58.4933333,34.5666667 57.3733333,39.1266667 55.2533333,43.1866667 L55.04,43.5933333 L51.1866667,41.3666667 L51.38,40.9933333 C53.1466667,37.5666667 54.0466667,33.8666667 54.0466667,29.9933333 C54.0466667,29.58 53.7133333,29.2466667 53.3,29.2466667 L48.0933333,29.2466667 L48.0666667,28.8333333 C48.04,28.46 48.0066667,28.0933333 47.96,27.7333333 C47.9333333,27.5333333 47.8333333,27.36 47.6733333,27.2333333 C47.5133333,27.1133333 47.32,27.06 47.12,27.08 C46.7066667,27.1333333 46.42,27.5066667 46.4666667,27.92 C46.5533333,28.6066667 46.5933333,29.3 46.5933333,29.9933333 C46.5933333,32.4733333 46.02,34.9733333 44.94,37.22 L44.7333333,37.6466667 L40.88,35.42 L41.0466667,35.0533333 C41.7666667,33.4733333 42.1533333,31.7266667 42.1533333,29.9933333 C42.1533333,29.58 41.82,29.2466667 41.4066667,29.2466667 L35.4466667,29.2466667 C35.04,29.2533333 34.7133333,29.5866667 34.7133333,29.9933333 C34.7133333,32.5933333 32.5933333,34.7133333 29.9933333,34.7133333 C27.3933333,34.7133333 25.2733333,32.5933333 25.2733333,29.9933333 C25.2733333,27.3933333 27.3933333,25.2733333 29.9933333,25.2733333 C30.4066667,25.2733333 30.74,24.94 30.74,24.5266667 C30.74,24.1133333 30.4066667,23.78 29.9933333,23.78 C26.9866667,23.78 24.4133333,25.9266667 23.8733333,28.8866667 L23.8066667,29.2466667 L19.34,29.2466667 L19.4,28.7533333 C20.0333333,23.3866667 24.5866667,19.3333333 30,19.3333333 C33.8,19.3333333 37.34,21.38 39.2333333,24.6666667 C39.44,25.0266667 39.9,25.1466667 40.26,24.94 C40.4333333,24.84 40.56,24.68 40.6066667,24.4866667 C40.66,24.2933333 40.6333333,24.0933333 40.5333333,23.92 C39.66,22.4 38.48,21.1133333 37.0466667,20.0933333 L36.72,19.86 L38.9466667,16 L39.34,16.2666667 C41.3933333,17.6666667 43.14,19.54 44.3866667,21.7 C44.52,21.9333333 44.7666667,22.0733333 45.04,22.0733333 C45.1733333,22.0733333 45.3,22.04 45.4133333,21.9733333 C45.5866667,21.8733333 45.7133333,21.7133333 45.76,21.52 C45.8133333,21.3266667 45.7866667,21.1266667 45.6866667,20.9533333 C44.12,18.24 41.86,15.9666667 39.16,14.3866667 L39.0866667,14.3866667 L39,14.2933333 L38.8533333,14.2133333 C37.8666667,13.66 36.8333333,13.2 35.7666667,12.8466667 C35.3733333,12.7133333 34.9466667,12.9266667 34.82,13.32 C34.6866667,13.7133333 34.9,14.14 35.2933333,14.2666667 C35.9466667,14.4866667 36.6,14.7533333 37.2266667,15.0533333 L37.6533333,15.26 L35.4266667,19.12 L35.06,18.9533333 C33.4533333,18.22 31.7533333,17.8466667 30,17.8466667 C26.08,17.8466667 22.3733333,19.76 20.0866667,22.9666667 L19.8533333,23.2933333 L16,21.0533333 L16.2666667,20.66 C18.3,17.6733333 21.3066667,15.3933333 24.7266667,14.2466667 C25.12,14.1133333 25.3333333,13.6866667 25.2,13.3 C25.0666667,12.9066667 24.6466667,12.6933333 24.2533333,12.8266667 C23.48,13.0866667 22.7133333,13.4 21.9733333,13.7666667 L21.6066667,13.9466667 L19.38,10.0933333 L19.7933333,9.88666667 C22.6066667,8.46 25.6333333,7.64666667 28.7933333,7.47333333 L29.26,7.44666667 L29.26,12.6333333 C29.26,13.0466667 29.5933333,13.38 30.0066667,13.38 C30.42,13.38 30.7533333,13.0466667 30.7533333,12.6333333 L30.7533333,7.44666667 L31.2133333,7.47333333 C32.78,7.56 34.34,7.80666667 35.84,8.20666667 C36.24,8.31333333 36.6533333,8.07333333 36.76,7.68 C36.8133333,7.48666667 36.7866667,7.28666667 36.6866667,7.11333333 C36.5866667,6.94 36.4266667,6.81333333 36.2333333,6.76666667 C34.2066667,6.22 32.1066667,5.94666667 30.0066667,5.94666667 C25.7866667,5.94666667 21.6333333,7.06 17.98,9.16666667 C17.8066667,9.26666667 17.68,9.42666667 17.6333333,9.62 C17.5866667,9.80666667 17.6066667,10 17.7,10.1666667 L20.3133333,14.6933333 L19.9733333,14.92 C17.6733333,16.4533333 15.7266667,18.5266667 14.34,20.92 C14.3333333,20.9266667 14.3333333,20.9333333 14.3266667,20.94 C14.3266667,20.9466667 14.32,20.9533333 14.3133333,20.96 C13.9333333,21.62 13.6,22.3 13.3133333,22.98 C13.1533333,23.36 13.3333333,23.8 13.7133333,23.96 C13.8066667,24 13.9066667,24.02 14,24.02 C14.3,24.02 14.5733333,23.84 14.6933333,23.56 C14.8066667,23.2933333 14.9266667,23.0266667 15.0533333,22.7666667 L15.26,22.34 L19.12,24.5666667 L18.9533333,24.9333333 C18.22,26.5266667 17.8466667,28.2333333 17.8466667,29.9933333 C17.8466667,31.76 18.22,33.46 18.9533333,35.0533333 L19.12,35.42 L15.26,37.6466667 L15.0533333,37.22 C14.8866667,36.8666667 14.7266667,36.52 14.5933333,36.18 C14.52,35.9933333 14.3733333,35.8466667 14.1933333,35.7666667 C14.0133333,35.6866667 13.8066667,35.6866667 13.62,35.76 C13.2333333,35.9133333 13.0466667,36.3533333 13.2066667,36.7333333 C15.2,41.6933333 19.2533333,45.5066667 24.3266667,47.18 C24.4066667,47.2066667 24.48,47.22 24.56,47.22 C24.8866667,47.22 25.1666667,47.0133333 25.2733333,46.7066667 C25.4,46.3133333 25.1866667,45.8866667 24.8,45.76 C21.3466667,44.62 18.32,42.3333333 16.28,39.3333333 L16.0133333,38.94 L19.8733333,36.7133333 L20.1066667,37.04 C22.3933333,40.2466667 26.1,42.16 30.02,42.16 C32.1533333,42.16 34.2533333,41.5933333 36.1,40.5333333 C36.2733333,40.4333333 36.4,40.2733333 36.4466667,40.08 C36.5,39.8866667 36.4733333,39.6866667 36.3733333,39.5133333 C36.1666667,39.1533333 35.7066667,39.0333333 35.3466667,39.24 C34.0866667,39.9666667 32.7066667,40.4266667 31.2533333,40.5933333 L30.76,40.6533333 L30.76,36.1866667 L31.12,36.12 C33.6533333,35.66 35.6666667,33.6466667 36.1266667,31.1133333 L36.1933333,30.7533333 L40.66,30.7533333 L40.6,31.2466667 C40.4266667,32.7 39.9733333,34.0733333 39.2466667,35.3333333 L39.24,35.3466667 C39.1466667,35.52 39.12,35.7133333 39.1733333,35.9066667 C39.2266667,36.1 39.3466667,36.26 39.52,36.36 L44.0066667,38.9533333 L43.74,39.3466667 C43.42,39.8133333 43.08,40.2666667 42.7333333,40.6866667 C42.4666667,41 42.5066667,41.48 42.8266667,41.74 C42.9666667,41.8533333 43.1266667,41.9133333 43.3066667,41.9133333 C43.5266667,41.9133333 43.74,41.8133333 43.88,41.6466667 C44.5533333,40.8466667 45.1533333,39.98 45.68,39.0733333 C45.6866667,39.0666667 45.6866667,39.06 45.6933333,39.0533333 L45.7,39.04 C47.08,36.6466667 47.9,33.92 48.08,31.1666667 L48.1066667,30.7533333 L52.5533333,30.7533333 L52.5266667,31.2133333 C52.3333333,34.7866667 51.28,38.3066667 49.4666667,41.3933333 C47.7066667,44.3933333 45.2333333,46.9866667 42.3133333,48.8933333 L41.9266667,49.1466667 L39.3333333,44.66 C39.1266667,44.3 38.6666667,44.18 38.3066667,44.3866667 C38.1333333,44.4866667 38.0066667,44.6466667 37.96,44.84 C37.9066667,45.0333333 37.9333333,45.2333333 38.0333333,45.4066667 L40.6266667,49.8933333 L40.2133333,50.1066667 C37.4,51.54 34.3733333,52.3533333 31.2133333,52.52 L30.7533333,52.5466667 L30.7533333,48.0933333 L31.1666667,48.0666667 C31.9333333,48.02 32.6933333,47.92 33.4333333,47.78 C33.6266667,47.74 33.8,47.6266667 33.9133333,47.4666667 C34.0266667,47.3 34.0666667,47.1 34.0266667,46.9066667 C33.9866667,46.7133333 33.8733333,46.54 33.7133333,46.4266667 C33.5466667,46.3133333 33.3466667,46.2733333 33.1533333,46.3133333 C32.12,46.5133333 31.06,46.6133333 30.0066667,46.6133333 C29.5933333,46.6133333 29.26,46.9466667 29.26,47.36 L29.26,52.5466667 L28.8,52.52 C27.2333333,52.4333333 25.6733333,52.1866667 24.1733333,51.7866667 C23.7733333,51.68 23.36,51.92 23.2533333,52.3133333 C23.2,52.5066667 23.2266667,52.7066667 23.3266667,52.88 C23.4266667,53.0533333 23.5866667,53.18 23.78,53.2266667 C25.8133333,53.7733333 27.9066667,54.0466667 30.0066667,54.0466667 C34.2066667,54.0466667 38.3466667,52.94 41.9733333,50.8533333 L41.9933333,50.84 C42.0066667,50.8333333 42.02,50.8266667 42.0266667,50.82 L42.0333333,50.8133333 C42.0533333,50.8 42.0733333,50.7866667 42.1,50.7733333 L42.1333333,50.7466667 C45.38,48.84 48.18,46.1666667 50.22,43 L50.4466667,42.6466667 L54.9733333,45.26 C54.9933333,45.2733333 55.02,45.28 55.0466667,45.2933333 L55.0666667,45.3 C55.0866667,45.3066667 55.1066667,45.3133333 55.1333333,45.32 L55.1466667,45.3266667 C55.2133333,45.34 55.2666667,45.3533333 55.3266667,45.3533333 C55.3333333,45.3533333 55.3333333,45.3533333 55.34,45.3533333 C55.3666667,45.3533333 55.3933333,45.3533333 55.42,45.3466667 L55.44,45.3466667 C55.5,45.34 55.5533333,45.32 55.6133333,45.3 L55.6266667,45.2933333 C55.6533333,45.28 55.6733333,45.2733333 55.6933333,45.26 L55.7133333,45.2466667 C55.76,45.22 55.8066667,45.18 55.8533333,45.14 L55.8666667,45.12 C55.88,45.1066667 55.8933333,45.0933333 55.9066667,45.0733333 C55.9133333,45.0666667 55.9133333,45.06 55.92,45.0533333 C55.9466667,45.02 55.96,44.9933333 55.9733333,44.9733333 C58.6,40.42 59.9933333,35.2333333 59.9933333,29.9733333 C60,21.9866667 56.88,14.4533333 51.2133333,8.78666667 Z M29.2533333,40.6466667 L28.76,40.5866667 C26.3933333,40.3133333 24.16,39.2266667 22.46,37.5333333 C20.7666667,35.84 19.68,33.6 19.4066667,31.2333333 L19.3466667,30.74 L23.8133333,30.74 L23.88,31.1 C24.34,33.6333333 26.3533333,35.6466667 28.8866667,36.1066667 L29.2466667,36.1733333 L29.2466667,40.6466667 L29.2533333,40.6466667 Z" id="Growing-as-a-Leader"></path>
        </g>
    </g>
</svg>