<?xml version="1.0" encoding="UTF-8"?>
<svg width="100px" height="100px" viewBox="0 0 100 100" version="1.1" xmlns="http://www.w3.org/2000/svg" xmlns:xlink="http://www.w3.org/1999/xlink">
    <!-- Generator: Sketch 51.1 (57501) - http://www.bohemiancoding.com/sketch -->
    <title>Coaching</title>
    <desc>Created with Sketch.</desc>
    <defs></defs>
    <g id="Coaching" stroke="none" stroke-width="1" fill="none" fill-rule="evenodd">
        <path d="M18,86.5 L80.5,86.5" id="Line" stroke="#3F3F3F" stroke-width="2" stroke-linecap="square" fill-rule="nonzero"></path>
        <path d="M18.5,51 L18.5,51 C19.0522847,51 19.5,51.4477153 19.5,52 L19.5,87 L17.5,87 L17.5,52 C17.5,51.4477153 17.9477153,51 18.5,51 Z" id="Line-Copy" fill="#3F3F3F" fill-rule="nonzero"></path>
        <path d="M24.5,43 L26.5,43 L26.5,55 C26.5,55.5522847 26.0522847,56 25.5,56 L25.5,56 C24.9477153,56 24.5,55.5522847 24.5,55 L24.5,43 Z" id="Line-Copy-2" fill="#3F3F3F" fill-rule="nonzero"></path>
        <path d="M25.5,65 L25.5,65 C26.0522847,65 26.5,65.4477153 26.5,66 L26.5,86 L24.5,86 L24.5,66 C24.5,65.4477153 24.9477153,65 25.5,65 Z" id="Line-Copy-3" fill="#3F3F3F" fill-rule="nonzero"></path>
        <circle id="Oval" stroke="#3F3F3F" stroke-width="2" fill-rule="nonzero" cx="50" cy="50" r="49"></circle>
        <path d="M18.1010206,67 L12.5,67 L12.5,49 C12.4993228,47.3159622 12.9993228,45.9826289 14,45 C15.0006772,44.0173711 16.367684,43.5173711 18.1010206,43.5 L30.5,43.5 L49.5,55 L46.5,60 L32.5,52 L32.5,87" id="Path-3" stroke="#3F3F3F" stroke-width="2" fill-rule="nonzero"></path>
        <circle id="Oval-2" stroke="#3F3F3F" stroke-width="2" fill-rule="nonzero" cx="24" cy="30" r="8"></circle>
        <path d="M28.303422,36.0471437 L27.696578,37.9528563 C25.4766597,37.2459583 23.7180742,35.5715463 22.4208217,32.9296201 L22.4208255,32.9296182 C22.2637617,32.609749 22.3957415,32.2231183 22.7156107,32.0660544 C22.8041151,32.0225966 22.9014018,32 23,32 L23.3660482,31.9999785 C23.7414551,31.9999785 24.085239,32.2102292 24.2562649,32.5444155 C25.1586891,34.3077615 26.5077415,35.4753376 28.303422,36.0471437 Z" id="Path-5" fill="#3F3F3F" fill-rule="nonzero"></path>
        <path d="M76.303422,36.0471437 L75.696578,37.9528563 C73.4766597,37.2459583 71.7180742,35.5715463 70.4208217,32.9296201 L70.4208255,32.9296182 C70.2637617,32.609749 70.3957415,32.2231183 70.7156107,32.0660544 C70.8041151,32.0225966 70.9014018,32 71,32 L71.3660482,31.9999785 C71.7414551,31.9999785 72.085239,32.2102292 72.2562649,32.5444155 C73.1586891,34.3077615 74.5077415,35.4753376 76.303422,36.0471437 Z" id="Path-5-Copy" fill="#3F3F3F" fill-rule="nonzero" transform="translate(73.151711, 34.976428) scale(-1, 1) translate(-73.151711, -34.976428) "></path>
        <path d="M82.5,51 L82.5,51 C83.0522847,51 83.5,51.4477153 83.5,52 L83.5,87 L81.5,87 L81.5,52 C81.5,51.4477153 81.9477153,51 82.5,51 Z" id="Line-Copy-4" fill="#3F3F3F" fill-rule="nonzero"></path>
        <path d="M68.5,51 L68.5,51 C69.0522847,51 69.5,51.4477153 69.5,52 L69.5,87 L67.5,87 L67.5,52 C67.5,51.4477153 67.9477153,51 68.5,51 Z" id="Line-Copy-7" fill="#3F3F3F" fill-rule="nonzero"></path>
        <path d="M74.5,43 L76.5,43 L76.5,55 C76.5,55.5522847 76.0522847,56 75.5,56 L75.5,56 C74.9477153,56 74.5,55.5522847 74.5,55 L74.5,43 Z" id="Line-Copy-5" fill="#3F3F3F" fill-rule="nonzero"></path>
        <path d="M75.5,65 L75.5,65 C76.0522847,65 76.5,65.4477153 76.5,66 L76.5,86 L74.5,86 L74.5,66 C74.5,65.4477153 74.9477153,65 75.5,65 Z" id="Line-Copy-6" fill="#3F3F3F" fill-rule="nonzero"></path>
        <path d="M68.5079921,67 L63.0079921,67 L63.0079921,49 C62.9294762,47.5654299 63.4294762,46.3987632 64.5079921,45.5 C65.586508,44.6012368 67.086508,44.1012368 69.0079921,44 L82.9177394,44 C84.3112412,44 85.5079921,44.5 86.5079921,45.5 C87.5079921,46.5 88.0079921,47.6626639 88.0079921,48.9879918 L88.0079921,67 L82.5079921,67" id="Path-3-Copy" stroke="#3F3F3F" stroke-width="2" fill-rule="nonzero" transform="translate(75.503996, 55.500000) scale(-1, 1) translate(-75.503996, -55.500000) "></path>
        <circle id="Oval-2-Copy" stroke="#3F3F3F" stroke-width="2" fill-rule="nonzero" transform="translate(75.000000, 30.000000) scale(-1, 1) translate(-75.000000, -30.000000) " cx="75" cy="30" r="8"></circle>
        <path d="M37,10 L63,10 C64.1045695,10 65,10.8954305 65,12 L65,22 C65,23.1045695 64.1045695,24 63,24 L58,24 C57.7644185,25.6296549 57.7644185,26.9629882 58,28 C58.3533722,29.5555177 60.4583136,31 59.5902137,31 C58.7221138,31 56.3421657,29.6806441 55,28 C54.1052229,26.8795706 53.7718895,25.5462373 54,24 L46,24 C45.7299825,25.4261315 45.0633159,26.7594648 44,28 C42.4050262,29.8608028 39.6269769,31 39,31 C38.3730231,31 40.4528485,29.9150304 41,28 C41.3647677,26.7233131 41.3647677,25.3899798 41,24 L37,24 C35.8954305,24 35,23.1045695 35,22 L35,12 C35,10.8954305 35.8954305,10 37,10 Z" id="Rectangle-9" stroke="#3F3F3F" stroke-width="2" fill-rule="nonzero"></path>
    </g>
</svg>