<?xml version="1.0" encoding="UTF-8"?>
<svg width="60px" height="60px" viewBox="0 0 60 60" version="1.1" xmlns="http://www.w3.org/2000/svg" xmlns:xlink="http://www.w3.org/1999/xlink">
    <!-- Generator: Sketch 51 (57462) - http://www.bohemiancoding.com/sketch -->
    <title>Mastering-Relations</title>
    <desc>Created with Sketch.</desc>
    <defs></defs>
    <g id="Mastering-Relations" stroke="none" stroke-width="1" fill="none" fill-rule="evenodd">
        <path d="M57.64,18.32 C56.1266667,14.7466667 53.9666667,11.54 51.2133333,8.78666667 C48.46,6.03333333 45.2533333,3.86666667 41.68,2.36 C37.98,0.793333333 34.0466667,0 30,0 C25.9533333,0 22.02,0.793333333 18.32,2.36 C14.7466667,3.87333333 11.54,6.03333333 8.78666667,8.78666667 C6.03333333,11.54 3.86666667,14.7466667 2.36,18.32 C0.793333333,22.02 0,25.9533333 0,30 C0,34.0466667 0.793333333,37.98 2.36,41.68 C3.87333333,45.2533333 6.03333333,48.46 8.78666667,51.2133333 C11.54,53.9666667 14.7466667,56.1333333 18.32,57.64 C22.02,59.2066667 25.9533333,60 30,60 C34.0466667,60 37.98,59.2066667 41.68,57.64 C45.2533333,56.1266667 48.46,53.9666667 51.2133333,51.2133333 C53.9666667,48.46 56.1333333,45.2533333 57.64,41.68 C59.2066667,37.98 60,34.0466667 60,30 C60,25.9533333 59.2066667,22.02 57.64,18.32 Z M56.54,19.1466667 L50.3733333,25.3133333 L44.6666667,19.6066667 L52.2933333,11.98 C53.98,14.06 55.3666667,16.36 56.4133333,18.8466667 C56.46,18.94 56.5,19.0466667 56.54,19.1466667 Z M29.54,37.3 L36.8533333,44.6133333 C37.0333333,44.7933333 37.1333333,45.0333333 37.1333333,45.2866667 C37.1333333,45.54 37.0333333,45.78 36.8533333,45.96 C36.48,46.3333333 35.8733333,46.3333333 35.5066667,45.96 L34.2666667,44.7266667 C34.26,44.72 34.2533333,44.7133333 34.2466667,44.7066667 C34.2466667,44.7066667 34.24,44.7 34.24,44.7 L28.5666667,39.0266667 C28.2933333,38.7533333 27.8533333,38.7533333 27.58,39.0266667 C27.3066667,39.3 27.3066667,39.74 27.58,40.0133333 L33.2666667,45.7 C33.44,45.88 33.5333333,46.1133333 33.5333333,46.3666667 C33.5333333,46.62 33.4333333,46.86 33.2533333,47.04 C32.88,47.4133333 32.28,47.4133333 31.9066667,47.04 L25.74,40.8733333 C25.4666667,40.6 25.0266667,40.6 24.7533333,40.8733333 C24.48,41.1466667 24.48,41.5866667 24.7533333,41.86 L29.3266667,46.4333333 C29.3266667,46.4333333 29.3266667,46.4333333 29.3333333,46.44 C29.5133333,46.62 29.6133333,46.86 29.6133333,47.1133333 C29.6133333,47.3666667 29.5133333,47.6066667 29.3333333,47.7866667 C29.1533333,47.9666667 28.9133333,48.0666667 28.66,48.0666667 C28.6,48.0666667 28.54,48.06 28.48,48.0466667 C28.5933333,47.2866667 28.36,46.48 27.7733333,45.8933333 C27.3,45.42 26.6666667,45.1533333 25.9933333,45.1533333 C25.9733333,45.1533333 25.9533333,45.1533333 25.94,45.1533333 C25.9533333,44.4933333 25.7066667,43.82 25.2066667,43.32 C24.7333333,42.8466667 24.1,42.58 23.4266667,42.58 C23.3866667,42.58 23.34,42.58 23.3,42.58 C23.3333333,41.8933333 23.0866667,41.2 22.5666667,40.6733333 C21.9333333,40.04 21.0333333,39.8133333 20.22,40 L19.72,39.5 C18.34,38.12 17.42,36.3733333 17.06,34.4533333 C16.9266667,33.7533333 16.5866667,33.1066667 16.08,32.5933333 L14.8466667,31.36 L21.8666667,24.34 L23.6133333,26.0866667 C24.2866667,26.76 25.2,27.12 26.14,27.12 C26.56,27.12 26.9866667,27.0466667 27.3933333,26.9 C27.5933333,26.8266667 27.8,26.7733333 28.0066667,26.74 L23.6733333,31.0733333 C23.14,31.6066667 22.8533333,32.3066667 22.8533333,33.06 C22.8533333,33.8066667 23.1466667,34.5133333 23.6733333,35.0466667 C24.22,35.5933333 24.94,35.8666667 25.66,35.8666667 C26.38,35.8666667 27.1,35.5933333 27.6466667,35.0466667 L29.82,32.8733333 L30.4066667,33.46 C30.4066667,33.46 30.4066667,33.46 30.4066667,33.46 L30.4333333,33.4866667 L30.46,33.5133333 C30.46,33.5133333 30.46,33.5133333 30.46,33.5133333 C30.4666667,33.52 30.4733333,33.5266667 30.48,33.5333333 L38.6666667,41.7533333 C38.8466667,41.9333333 38.9466667,42.1733333 38.9466667,42.4266667 C38.9466667,42.68 38.8466667,42.92 38.6666667,43.1 C38.4866667,43.28 38.2466667,43.38 37.9933333,43.38 C37.74,43.38 37.5,43.28 37.32,43.1 L30.5266667,36.3133333 C30.2533333,36.04 29.8133333,36.04 29.54,36.3133333 C29.2666667,36.5866667 29.2666667,37.0266667 29.54,37.3 Z M26.78,48.4733333 C26.5666667,48.6866667 26.2866667,48.8 25.9866667,48.8 C25.6866667,48.8 25.4066667,48.6866667 25.1933333,48.4733333 C24.76,48.04 24.76,47.3266667 25.1933333,46.8933333 C25.4133333,46.6733333 25.7,46.5666667 25.9866667,46.5666667 C26.2733333,46.5666667 26.56,46.6733333 26.78,46.8933333 C27.2133333,47.3266667 27.2133333,48.0333333 26.78,48.4733333 Z M24.2066667,45.9 C23.9933333,46.1133333 23.7133333,46.2266667 23.4133333,46.2266667 C23.1133333,46.2266667 22.8333333,46.1133333 22.62,45.9 C22.1866667,45.4666667 22.1866667,44.7533333 22.62,44.32 C22.84,44.1 23.1266667,43.9933333 23.4133333,43.9933333 C23.7,43.9933333 23.9866667,44.1 24.2066667,44.32 C24.64,44.7533333 24.64,45.4666667 24.2066667,45.9 Z M21.5666667,43.26 C21.1333333,43.6933333 20.42,43.6933333 19.9866667,43.26 C19.7733333,43.0466667 19.66,42.7666667 19.66,42.4666667 C19.66,42.1666667 19.7733333,41.8866667 19.9866667,41.6733333 C20.2066667,41.4533333 20.4933333,41.3466667 20.78,41.3466667 C21.0666667,41.3466667 21.3533333,41.4533333 21.5733333,41.6733333 C22,42.1133333 22,42.8266667 21.5666667,43.26 Z M18.3,19.4066667 L21.56,22.6666667 L13.0933333,31.1333333 L9.83333333,27.8733333 L18.3,19.4066667 Z M38.94,40.0533333 L34.5133333,35.6266667 C34.6066667,35.6333333 34.7066667,35.64 34.8066667,35.64 C35.2533333,35.64 35.7133333,35.56 36.1733333,35.3733333 C36.5333333,35.2266667 36.7,34.82 36.5533333,34.46 C36.4066667,34.1 36,33.9333333 35.64,34.08 C33.84,34.82 31.68,32.7866667 31.44,32.5533333 C31.4333333,32.5466667 31.4333333,32.5466667 31.4266667,32.54 L31.4,32.5133333 C31.4,32.5133333 31.4,32.5133333 31.4,32.5133333 L31.38,32.4933333 C31.38,32.4933333 31.38,32.4933333 31.38,32.4933333 L30.7933333,31.9066667 L31.46,31.24 C31.7333333,30.9666667 31.7333333,30.5266667 31.46,30.2533333 C31.1866667,29.98 30.7466667,29.98 30.4733333,30.2533333 L29.3133333,31.4133333 C29.3133333,31.4133333 29.3133333,31.4133333 29.3133333,31.4133333 C29.3133333,31.4133333 29.3133333,31.4133333 29.3133333,31.4133333 L26.64,34.0866667 C26.0933333,34.6333333 25.2,34.6333333 24.6533333,34.0866667 C24.3866667,33.82 24.24,33.4666667 24.24,33.0933333 C24.24,32.72 24.3866667,32.3666667 24.6533333,32.1 L29.26,27.4933333 C29.5133333,27.24 29.8,27.0133333 30.1066667,26.82 C30.8333333,26.3733333 31.6733333,26.1333333 32.54,26.1333333 C33.2,26.1333333 33.86,26.2733333 34.46,26.5466667 C35.8133333,27.16 37.4266667,26.8733333 38.4666667,25.8333333 L39.44,24.86 L45.1666667,30.5866667 L43.08,32.6733333 C42.5933333,33.16 42.2733333,33.76 42.16,34.42 C41.8133333,36.3666667 40.8866667,38.1333333 39.4933333,39.5266667 L38.94,40.0533333 Z M39.5,22.94 L42.76,19.68 L50.2666667,27.1866667 L47.0066667,30.4466667 L39.5,22.94 Z M18.84,3.58666667 C22.3733333,2.09333333 26.1266667,1.33333333 30,1.33333333 C33.8733333,1.33333333 37.6266667,2.09333333 41.16,3.58666667 C44.5733333,5.03333333 47.64,7.1 50.2733333,9.73333333 C50.6466667,10.1066667 51,10.4866667 51.3466667,10.8733333 L43.64,18.5733333 L43.26,18.1933333 C42.9866667,17.92 42.5466667,17.92 42.2733333,18.1933333 L38.0266667,22.44 C37.8933333,22.5733333 37.82,22.7466667 37.82,22.9333333 C37.82,23.12 37.8933333,23.3 38.0266667,23.4266667 L38.4533333,23.8533333 L37.4666667,24.8266667 C36.8333333,25.46 35.8533333,25.6333333 35.0266667,25.2533333 C34.2533333,24.9 33.3866667,24.7133333 32.5333333,24.7133333 C31.5133333,24.7133333 30.52,24.9666667 29.64,25.4533333 C29.2733333,25.36 28.8933333,25.3133333 28.5133333,25.3133333 C27.96,25.3133333 27.42,25.4066667 26.9,25.5933333 C26.0733333,25.8933333 25.1866667,25.7066667 24.5866667,25.1066667 L22.84,23.36 L23.0466667,23.1533333 C23.18,23.02 23.2533333,22.8466667 23.2533333,22.66 C23.2533333,22.4733333 23.18,22.2933333 23.0466667,22.1666667 L18.8,17.9266667 C18.5266667,17.6533333 18.0866667,17.6533333 17.8133333,17.9266667 L17.8,17.94 L9.66666667,9.80666667 C9.69333333,9.78 9.71333333,9.76 9.73333333,9.73333333 C12.36,7.1 15.4266667,5.02666667 18.84,3.58666667 Z M8.66,10.86 L16.7666667,18.9666667 L9.43333333,26.3 L3.12666667,19.9933333 C3.27333333,19.6066667 3.42666667,19.22 3.58666667,18.84 C4.82666667,15.9066667 6.53333333,13.2266667 8.66,10.86 Z M56.4133333,41.16 C54.9666667,44.5733333 52.9,47.64 50.2666667,50.2733333 C47.6333333,52.9066667 44.5666667,54.9733333 41.1533333,56.42 C37.6266667,57.9066667 33.8733333,58.6666667 30,58.6666667 C26.1266667,58.6666667 22.3733333,57.9066667 18.84,56.4133333 C15.4266667,54.9666667 12.36,52.9 9.72666667,50.2666667 C7.09333333,47.6333333 5.02666667,44.5666667 3.58,41.1533333 C2.09333333,37.6266667 1.33333333,33.8733333 1.33333333,30 C1.33333333,27.0933333 1.76,24.26 2.60666667,21.5266667 L8.40666667,27.3266667 L8.35333333,27.38 C8.08,27.6533333 8.08,28.0933333 8.35333333,28.3666667 L12.6,32.6133333 C12.7333333,32.7466667 12.9066667,32.82 13.0933333,32.82 C13.28,32.82 13.46,32.7466667 13.5866667,32.6133333 L13.84,32.36 L15.0733333,33.5933333 C15.3866667,33.9066667 15.5933333,34.2933333 15.6666667,34.72 C16.0733333,36.92 17.1266667,38.9133333 18.7133333,40.5 L18.9466667,40.7333333 C18.5,41.2 18.2533333,41.8133333 18.2533333,42.4666667 C18.2533333,43.14 18.5133333,43.7733333 18.9933333,44.2466667 C19.4866667,44.74 20.1266667,44.98 20.7733333,44.98 C20.8133333,44.98 20.86,44.98 20.9,44.98 C20.8666667,45.6666667 21.1133333,46.3666667 21.6333333,46.8866667 C22.1066667,47.36 22.74,47.6266667 23.4133333,47.6266667 C23.4333333,47.6266667 23.4533333,47.6266667 23.4666667,47.6266667 C23.4533333,48.2866667 23.7,48.96 24.2,49.46 C24.6733333,49.9333333 25.3066667,50.2 25.98,50.2 C26.6533333,50.2 27.2866667,49.94 27.76,49.46 C27.8,49.42 27.84,49.38 27.8733333,49.3333333 C28.12,49.42 28.38,49.4666667 28.6466667,49.4666667 C29.2733333,49.4666667 29.8666667,49.22 30.3133333,48.78 C30.5466667,48.5466667 30.7266667,48.2666667 30.8466667,47.9666667 L30.92,48.04 C31.38,48.5 31.98,48.7266667 32.5866667,48.7266667 C33.1933333,48.7266667 33.7933333,48.5 34.2533333,48.04 C34.5,47.7933333 34.68,47.5066667 34.7933333,47.1933333 C35.2066667,47.4933333 35.6866667,47.64 36.1733333,47.64 C36.7733333,47.64 37.38,47.4133333 37.84,46.9533333 C38.2866667,46.5066667 38.5266667,45.92 38.5266667,45.2866667 C38.5266667,45.1 38.5066667,44.9133333 38.46,44.7333333 C38.9066667,44.64 39.32,44.42 39.6533333,44.0933333 C40.1,43.6466667 40.34,43.06 40.34,42.4266667 C40.34,41.9333333 40.1866667,41.46 39.9066667,41.0666667 L40.4666667,40.5066667 C42.0666667,38.9066667 43.1266667,36.88 43.5266667,34.6533333 C43.5933333,34.28 43.78,33.9333333 44.06,33.6533333 L46.1466667,31.5666667 L46.5133333,31.9333333 C46.6466667,32.0733333 46.8266667,32.14 47.0066667,32.14 C47.1866667,32.14 47.3666667,32.0733333 47.5,31.9333333 L51.7466667,27.6866667 C51.88,27.5533333 51.9533333,27.38 51.9533333,27.1933333 C51.9533333,27.0066667 51.88,26.8266667 51.7466667,26.7 L51.3933333,26.3466667 L57.0933333,20.6466667 C58.1333333,23.6466667 58.6533333,26.7866667 58.6533333,30.0066667 C58.6666667,33.8733333 57.9066667,37.6266667 56.4133333,41.16 Z" fill="#ffffff" fill-rule="nonzero"></path>
    </g>
</svg>
